<svg width="50" height="50" viewBox="0 0 50 50" fill="none" xmlns="http://www.w3.org/2000/svg">
<circle cx="25" cy="25" r="25" fill="black" fill-opacity="0.3"/>
<path fill-rule="evenodd" clip-rule="evenodd" d="M27.2502 24.5525C27.1113 24.4125 26.8335 24.1325 26.6946 23.9924C26.4169 23.7124 26.278 23.5724 26.0002 23.2923C25.7224 23.0123 25.3058 22.5922 24.8892 22.1721C24.1947 21.472 23.3614 20.6319 22.667 19.9318C22.2504 19.5117 21.8337 19.0916 21.4171 18.6716C21.1393 18.3915 20.5838 17.9715 20.306 17.5514C19.4727 16.4312 20.4449 14.7509 21.9726 15.031C22.5281 15.171 22.9448 15.7311 23.2226 16.0112C23.6392 16.4312 23.917 16.8513 24.3336 17.1313C25.1669 17.9715 25.8613 18.6716 26.6946 19.5117L30.1667 23.0123C30.4445 23.2923 31 23.7124 31 24.5525C31 25.2526 30.4445 25.6727 30.1667 25.9528C29.7501 26.3728 29.4723 26.7929 29.0556 27.213C28.2223 27.9131 27.5279 28.7532 26.6946 29.4533L23.2226 32.9539C22.9448 33.2339 22.5281 33.794 21.9726 33.934C20.5838 34.3541 19.4727 32.6738 20.306 31.5537C20.5838 31.1336 21.1393 30.7135 21.4171 30.2935L26.0002 25.6727C26.278 25.5327 26.4169 25.2526 26.5557 25.1126C26.8335 24.9726 27.1113 24.6925 27.2502 24.5525Z" fill="#FEFEFE" fill-opacity="0.9"/>
</svg>
