<svg width="28" height="47" viewBox="0 0 28 47" fill="none" xmlns="http://www.w3.org/2000/svg">
<path fill-rule="evenodd" clip-rule="evenodd" d="M18.455 23.6299C18.1014 23.2836 17.3944 22.5908 17.0409 22.2444C16.3338 21.5517 15.9803 21.2053 15.2733 20.5126C14.5662 19.8198 13.5057 18.7807 12.4451 17.7416C10.6775 16.0098 8.55639 13.9315 6.78879 12.1997C5.72823 11.1606 4.66767 10.1214 3.60711 9.08233C2.90007 8.38959 1.48599 7.35047 0.778946 6.31136C-1.34218 3.54038 1.13247 -0.616076 5.02119 0.0766672C6.43527 0.423039 7.49583 1.80853 8.20287 2.50127C9.26343 3.54038 9.97047 4.5795 11.031 5.27224C13.1522 7.35047 14.9198 9.08233 17.0409 11.1606L25.8789 19.8198C26.5859 20.5126 28 21.5517 28 23.6299C28 25.3618 26.5859 26.4009 25.8789 27.0936C24.8183 28.1328 24.1113 29.1719 23.0507 30.211C20.9296 31.9429 19.162 34.0211 17.0409 35.7529L8.20287 44.4122C7.49583 45.105 6.43527 46.4905 5.02119 46.8368C1.48599 47.8759 -1.34218 43.7195 0.778946 40.9485C1.48599 39.9094 2.90007 38.8703 3.60711 37.8312L15.2733 26.4009C15.9803 26.0545 16.3338 25.3618 16.6874 25.0154C17.3944 24.6691 18.1014 23.9763 18.455 23.6299Z" fill="#FEFEFE"/>
</svg>
