<svg width="472" height="124" viewBox="0 0 472 124" fill="none" xmlns="http://www.w3.org/2000/svg">
<path d="M251.112 89.4179H243.005L241.619 80.196H231.762L230.375 89.4179H223L231.177 38.5821H242.935L251.112 89.4179ZM232.786 73.2951H240.524L236.656 47.5863L232.786 73.2951ZM269.222 38.5821C273.406 38.5821 276.44 39.5489 278.312 41.4871C280.186 43.4231 281.124 46.3535 281.124 50.2738V52.0906C281.124 54.7049 280.709 56.8586 279.882 58.554C279.056 60.2472 277.74 61.5073 275.94 62.3297C278.13 63.1524 279.674 64.4972 280.575 66.3599C281.477 68.2248 281.926 70.5115 281.926 73.2242V77.3643C281.926 81.2844 280.905 84.2743 278.86 86.3319C276.816 88.3892 273.773 89.4179 269.734 89.4179H257.099V38.5821H269.222ZM265.133 66.5431V82.1575H269.734C271.096 82.1575 272.131 81.793 272.837 81.0667C273.54 80.3404 273.895 79.0346 273.895 77.1443V72.7156C273.895 70.3419 273.492 68.7197 272.691 67.8492C271.887 66.9785 270.559 66.5431 268.71 66.5431H265.133ZM265.133 45.8449V59.2801H268.272C269.78 59.2801 270.961 58.893 271.813 58.1187C272.666 57.3441 273.09 55.9398 273.09 53.9053V51.0734C273.09 49.2335 272.763 47.9024 272.106 47.0777C271.449 46.255 270.414 45.8449 269.003 45.8449H265.133ZM286.673 38.5821H311.5V45.8449H303.102V89.4179H295.071V45.8449H286.673V38.5821ZM324.644 77.7262C324.644 79.5661 325.02 80.8605 325.776 81.612C326.53 82.3612 327.54 82.737 328.807 82.737C330.071 82.737 331.081 82.3612 331.837 81.612C332.589 80.8605 332.967 79.5661 332.967 77.7262V50.2738C332.967 48.4339 332.589 47.1395 331.837 46.388C331.081 45.6388 330.071 45.263 328.807 45.263C327.54 45.263 326.53 45.6388 325.776 46.388C325.02 47.1395 324.644 48.4339 324.644 50.2738V77.7262ZM316.611 50.7824C316.611 46.6675 317.657 43.508 319.751 41.3039C321.846 39.1021 324.863 38 328.807 38C332.748 38 335.765 39.1021 337.86 41.3039C339.953 43.508 341 46.6675 341 50.7824V77.2176C341 81.3325 339.953 84.492 337.86 86.6961C335.765 88.8979 332.748 90 328.807 90C324.863 90 321.846 88.8979 319.751 86.6961C317.657 84.492 316.611 81.3325 316.611 77.2176V50.7824Z" fill="black"/>
<path d="M135.357 44.0668H132.196L127.192 60.1864L123.508 72.5052L119.491 60.2509L114.094 44.0668H111L122.06 76.3061L120.15 81.8758C119.03 85.4783 117.517 87.3142 113.303 87.2474V89.9355C120.018 90.1959 121.928 86.9204 123.441 81.4175L135.357 44.0668ZM139.833 44.0668V89.9355H142.862V71.0634H148.589C155.895 71.0634 159.253 67.4585 159.253 60.1864V55.2063C159.253 48.5217 156.488 44.0668 149.379 44.0668H139.833ZM142.862 68.3107V46.8195H149.379C154.514 46.8195 156.226 50.0283 156.226 55.0083V60.3822C156.226 65.952 153.921 68.3107 148.589 68.3107H142.862ZM182.557 79.7774L184.862 89.9355H187.891L177.621 44H173.21L163.136 89.9355H165.902L168.207 79.7774H182.557ZM175.316 47.4737L182.097 77.1583H168.667L175.316 47.4737ZM212.906 46.8195V89.9355H216V44.0668H198.82L197.435 78.796C197.303 83.3822 196.974 87.2474 191.775 87.2474V90H192.367C199.147 89.8688 200.2 84.9554 200.465 78.7292L201.649 46.8195H212.906Z" fill="black"/>
<path d="M360.944 43.2693C353.895 43.2693 351 48.2575 351 54.8861V78.3829C351 85.0116 353.895 90 360.944 90C367.992 90 370.888 85.0116 370.888 78.3829V73.1318H367.992V78.5791C367.992 83.5027 366.081 87.1783 361.01 87.1783C355.938 87.1783 354.027 83.5027 354.027 78.5791V54.6899C354.027 49.7663 355.938 46.0264 361.01 46.0264C366.081 46.0264 367.992 49.7663 367.992 54.6899V58.693H370.888V54.8861C370.888 48.2575 367.992 43.2693 360.944 43.2693ZM387.487 89.6053V46.4185H396.905V43.6637H375.039V46.4185H384.458V89.6053H387.487ZM401.385 43.6637V89.6053H404.412V70.7045H410.143C417.455 70.7045 420.812 67.0936 420.812 59.8097V54.8215C420.812 48.1259 418.048 43.6637 410.932 43.6637H401.385ZM404.412 67.9474V46.4185H410.932C416.07 46.4185 417.783 49.635 417.783 54.6232V60.0059C417.783 65.5848 415.478 67.9474 410.143 67.9474H404.412ZM425.159 78.3829C425.159 85.0785 428.255 90 435.236 90C442.352 90 445.445 85.0785 445.445 78.3829V54.8861C445.445 48.1905 442.352 43.2693 435.236 43.2693C428.255 43.2693 425.159 48.1905 425.159 54.8861V78.3829ZM428.188 54.6899C428.188 49.7017 430.166 46.0264 435.236 46.0264C440.375 46.0264 442.416 49.7017 442.416 54.6899V78.5791C442.416 83.5673 440.375 87.2427 435.236 87.2427C430.166 87.2427 428.188 83.5673 428.188 78.5791V54.6899ZM465.667 35C465.534 37.5588 463.493 38.6086 461.054 38.6086C458.683 38.6086 456.642 37.5588 456.576 35H454.47C454.534 38.544 457.3 40.5789 461.054 40.5789C464.874 40.5789 467.642 38.477 467.706 35H465.667ZM468.234 48.9797V89.6053H471V43.6637H467.377L459.211 66.24L453.217 82.9767V43.6637H450.449V89.6053H453.745L461.646 67.2252L468.234 48.9797Z" fill="black"/>
<path d="M5.83155 104.338C1.85782 104.338 0 106.056 0 108.658V117.544C0 120.146 1.85782 121.865 5.83155 121.865C9.84116 121.865 11.699 120.146 11.699 117.544V115.408H8.94989V117.642C8.94989 119.189 8.02156 120.122 5.90563 120.122C3.82559 120.122 2.86022 119.189 2.86022 117.642V108.56C2.86022 107.014 3.82559 106.081 5.90563 106.081C8.02156 106.081 8.94989 107.014 8.94989 108.56V110.205H11.699V108.658C11.699 106.056 9.84116 104.338 5.83155 104.338ZM24.8286 106.252V121.693H27.7248V104.51H15.5442V121.693H18.4403V106.252H24.8286ZM34.8018 112.119V106.252H42.601V104.51H31.9045V121.693H42.601V119.95H34.8018V113.837H41.1518V112.119H34.8018ZM60.892 124V119.999H58.9242V104.51H55.9912V119.95H49.6029V104.51H46.7436V121.693H58.0701V124H60.892ZM74.245 108.02V121.693H76.8448V104.51H73.6142L69.4542 112.586L67.1517 117.323V104.51H64.5891V121.693H67.5975L71.4231 113.764L74.245 108.02ZM90.4954 118.231L91.4977 121.693H94.3939L89.4177 104.51H85.2217L80.2455 121.693H82.9195L83.9218 118.231H90.4954ZM87.1524 106.67L90.0868 116.587H84.2933L87.1524 106.67ZM108.378 106.252V121.693H111.275V104.51H100.691L99.9857 117.52C99.9105 119.165 99.5031 119.974 97.0884 119.974V121.717H97.5712C101.545 121.693 102.658 120.146 102.808 117.421L103.402 106.252H108.378ZM125.222 108.02V121.693H127.82V104.51H124.59L120.431 112.586L118.128 117.323V104.51H115.566V121.693H118.574L122.399 113.764L125.222 108.02ZM137.645 104.338C133.672 104.338 131.852 106.007 131.852 108.633V109.714H134.527V108.56C134.527 107.014 135.492 106.081 137.572 106.081C139.688 106.081 140.617 106.965 140.617 108.732V109.518C140.617 111.015 139.355 111.874 137.423 111.874H136.049V113.592H137.275C139.466 113.592 140.617 114.476 140.617 116.145V117.495C140.617 119.213 139.688 120.122 137.572 120.122C135.492 120.122 134.527 119.189 134.527 117.642V115.875H131.816V117.544C131.816 120.146 133.672 121.865 137.645 121.865C141.657 121.865 143.514 120.146 143.514 117.544V116.194C143.514 114.476 142.51 113.15 140.319 112.659C142.436 112.144 143.514 110.867 143.514 109.1V108.658C143.514 106.056 141.657 104.338 137.645 104.338ZM157.2 108.02V121.693H159.8V104.51H156.569L152.409 112.586L150.107 117.323V104.51H147.544V121.693H150.553L154.378 113.764L157.2 108.02ZM163.943 104.51V121.693H166.839V114.918H169.402C173.523 114.918 175.455 113.494 175.455 110.769V108.707C175.455 106.105 173.71 104.51 169.625 104.51H163.943ZM166.839 113.199V106.252H169.625C171.742 106.252 172.595 107.038 172.595 108.61V110.892C172.595 112.537 171.556 113.199 169.402 113.199H166.839ZM178.707 117.544C178.707 120.146 180.675 121.865 184.648 121.865C188.659 121.865 190.628 120.146 190.628 117.544V108.658C190.628 106.032 188.659 104.338 184.648 104.338C180.675 104.338 178.707 106.032 178.707 108.658V117.544ZM181.566 108.56C181.566 107.014 182.569 106.081 184.648 106.081C186.765 106.081 187.731 107.014 187.731 108.56V117.642C187.731 119.213 186.765 120.122 184.648 120.122C182.569 120.122 181.566 119.213 181.566 117.642V108.56ZM194.584 104.51V121.693H200.564C204.611 121.693 206.505 120.244 206.505 117.667V116.218C206.505 114.328 205.54 113.003 203.015 112.537C205.279 112.07 206.06 110.941 206.06 109.124V108.314C206.06 105.786 204.462 104.51 200.414 104.51H194.584ZM197.482 111.801V106.252H200.34C202.42 106.252 203.201 106.989 203.201 108.511V109.518C203.201 111.31 202.013 111.801 199.709 111.801H197.482ZM197.482 119.95V113.543H200.006C202.494 113.543 203.646 114.182 203.646 116.096V117.618C203.646 119.213 202.681 119.95 200.564 119.95H197.482ZM219.859 118.231L220.861 121.693H223.759L218.781 104.51H214.584L209.608 121.693H212.283L213.285 118.231H219.859ZM216.517 106.67L219.449 116.587H213.656L216.517 106.67ZM236.517 113.961V121.693H239.415V104.51H236.517V112.242H230.127V104.51H227.231V121.693H230.127V113.961H236.517ZM252.877 113.961V121.693H255.773V104.51H252.877V112.242H246.49V104.51H243.594V121.693H246.49V113.961H252.877ZM262.85 111.285V104.51H259.953V121.693H265.635C269.683 121.693 271.466 120.097 271.466 117.495V115.433C271.466 112.708 269.535 111.285 265.412 111.285H262.85ZM273.88 104.51V121.693H276.741V104.51H273.88ZM262.85 119.95V113.003H265.412C267.566 113.003 268.607 113.642 268.607 115.31V117.593C268.607 119.165 267.752 119.95 265.635 119.95H262.85ZM290.087 101C289.974 101.957 289.083 102.252 287.859 102.252C286.634 102.252 285.779 101.957 285.669 101H283.849C283.923 102.497 285.37 103.405 287.859 103.405C290.347 103.405 291.87 102.497 291.87 101H290.087ZM291.239 108.02V121.693H293.837V104.51H290.608L286.56 112.364L284.146 117.323V104.51H281.582V121.693H284.591L288.64 113.42L291.239 108.02ZM312.132 104.338C308.159 104.338 306.339 106.007 306.339 108.633V109.714H309.013V108.56C309.013 107.014 309.979 106.081 312.059 106.081C314.174 106.081 315.102 106.965 315.102 108.732V109.518C315.102 111.015 313.84 111.874 311.909 111.874H310.534V113.592H311.76C313.952 113.592 315.102 114.476 315.102 116.145V117.495C315.102 119.213 314.174 120.122 312.059 120.122C309.979 120.122 309.013 119.189 309.013 117.642V115.875H306.302V117.544C306.302 120.146 308.159 121.865 312.132 121.865C316.143 121.865 318 120.146 318 117.544V116.194C318 114.476 316.998 113.15 314.805 112.659C316.922 112.144 318 110.867 318 109.1V108.658C318 106.056 316.143 104.338 312.132 104.338ZM331.538 118.231L332.541 121.693H335.436L330.46 104.51H326.264L321.288 121.693H323.962L324.964 118.231H331.538ZM328.196 106.67L331.129 116.587H325.335L328.196 106.67ZM344.52 104.338C340.546 104.338 338.689 106.056 338.689 108.658V117.544C338.689 120.146 340.546 121.865 344.52 121.865C348.53 121.865 350.387 120.146 350.387 117.544V115.408H347.639V117.642C347.639 119.189 346.71 120.122 344.594 120.122C342.513 120.122 341.548 119.189 341.548 117.642V108.56C341.548 107.014 342.513 106.081 344.594 106.081C346.71 106.081 347.639 107.014 347.639 108.56V110.205H350.387V108.658C350.387 106.056 348.53 104.338 344.52 104.338ZM361.102 121.693V106.252H365.893V104.51H353.415V106.252H358.206V121.693H361.102ZM369.257 104.51V121.693H372.153V114.918H374.714C378.837 114.918 380.768 113.494 380.768 110.769V108.707C380.768 106.105 379.024 104.51 374.938 104.51H369.257ZM372.153 113.199V106.252H374.938C377.055 106.252 377.909 107.038 377.909 108.61V110.892C377.909 112.537 376.87 113.199 374.714 113.199H372.153ZM384.021 117.544C384.021 120.146 385.988 121.865 389.962 121.865C393.973 121.865 395.94 120.146 395.94 117.544V108.658C395.94 106.032 393.973 104.338 389.962 104.338C385.988 104.338 384.021 106.032 384.021 108.658V117.544ZM386.88 108.56C386.88 107.014 387.882 106.081 389.962 106.081C392.079 106.081 393.044 107.014 393.044 108.56V117.642C393.044 119.213 392.079 120.122 389.962 120.122C387.882 120.122 386.88 119.213 386.88 117.642V108.56ZM408.403 101C408.29 101.957 407.399 102.252 406.173 102.252C404.948 102.252 404.093 101.957 403.982 101H402.163C402.236 102.497 403.685 103.405 406.173 103.405C408.661 103.405 410.184 102.497 410.184 101H408.403ZM409.553 108.02V121.693H412.153V104.51H408.921L404.874 112.364L402.46 117.323V104.51H399.898V121.693H402.907L406.954 113.42L409.553 108.02ZM436.945 124V119.999H434.938V104.51H432.08V119.95H427.065V104.51H424.206V119.95H419.23V104.51H416.333V121.693H434.16V124H436.945ZM450.295 108.02V121.693H452.896V104.51H449.666L445.506 112.586L443.204 117.323V104.51H440.641V121.693H443.649L447.473 113.764L450.295 108.02ZM467.029 121.693H470L463.202 112.34L469.777 104.51H466.844L459.936 112.807V104.51H457.038V121.693H459.936V115.924L461.458 114.23L467.029 121.693Z" fill="black"/>
<path fill-rule="evenodd" clip-rule="evenodd" d="M0.00166479 88.9965L0 39.2543L18.9069 27L19 89L0.00166479 88.9965Z" fill="black"/>
<path fill-rule="evenodd" clip-rule="evenodd" d="M40.0493 39.5305L19.0019 27.8175L19 21.3242L55.9944 0L56 88.9983L40.1515 89L40.0493 39.5305Z" fill="black"/>
<path fill-rule="evenodd" clip-rule="evenodd" d="M72 89L72.1658 27L89 39.0063V88.9824L72 89Z" fill="black"/>
</svg>
