<svg width="290" height="76" viewBox="0 0 290 76" fill="none" xmlns="http://www.w3.org/2000/svg">
<path d="M154.392 54.6418H149.376L148.519 48.9668H142.421L141.562 54.6418H137L142.059 23.3582H149.333L154.392 54.6418ZM143.054 44.7201H147.841L145.448 28.8993L143.054 44.7201ZM165.595 23.3582C168.184 23.3582 170.06 23.9532 171.218 25.1459C172.378 26.3373 172.958 28.1406 172.958 30.5531V31.6711C172.958 33.2799 172.701 34.6053 172.19 35.6486C171.679 36.6906 170.865 37.466 169.751 37.9721C171.106 38.4784 172.061 39.306 172.619 40.4523C173.176 41.5999 173.454 43.0071 173.454 44.6764V47.2242C173.454 49.6366 172.823 51.4765 171.558 52.7427C170.293 54.0088 168.41 54.6418 165.912 54.6418H158.095V23.3582H165.595ZM163.065 40.565V50.1738H165.912C166.754 50.1738 167.395 49.9496 167.831 49.5026C168.266 49.0557 168.486 48.2521 168.486 47.0888V44.3634C168.486 42.9027 168.236 41.9044 167.741 41.3687C167.244 40.8329 166.422 40.565 165.278 40.565H163.065ZM163.065 27.8276V36.0955H165.007C165.94 36.0955 166.67 35.8573 167.198 35.3807C167.726 34.9041 167.988 34.0399 167.988 32.7879V31.0451C167.988 29.9129 167.786 29.0938 167.379 28.5863C166.973 28.08 166.332 27.8276 165.459 27.8276H163.065ZM176.391 23.3582H191.75V27.8276H186.555V54.6418H181.586V27.8276H176.391V23.3582ZM199.882 47.4469C199.882 48.5791 200.114 49.3757 200.582 49.8382C201.048 50.2992 201.673 50.5305 202.457 50.5305C203.239 50.5305 203.864 50.2992 204.331 49.8382C204.796 49.3757 205.03 48.5791 205.03 47.4469V30.5531C205.03 29.4209 204.796 28.6243 204.331 28.1618C203.864 27.7008 203.239 27.4695 202.457 27.4695C201.673 27.4695 201.048 27.7008 200.582 28.1618C200.114 28.6243 199.882 29.4209 199.882 30.5531V47.4469ZM194.912 30.8661C194.912 28.3338 195.559 26.3895 196.854 25.0332C198.15 23.6782 200.017 23 202.457 23C204.895 23 206.761 23.6782 208.058 25.0332C209.353 26.3895 210 28.3338 210 30.8661V47.1339C210 49.6661 209.353 51.6105 208.058 52.9668C206.761 54.3218 204.895 55 202.457 55C200.017 55 198.15 54.3218 196.854 52.9668C195.559 51.6105 194.912 49.6661 194.912 47.1339V30.8661Z" fill="#FED325"/>
<path d="M82.8461 27.0407H80.9193L77.8697 36.8526L75.624 44.351L73.1753 36.8918L69.8859 27.0407H68L74.7411 46.6646L73.5773 50.0549C72.8946 52.2477 71.9722 53.3652 69.4034 53.3245V54.9607C73.4969 55.1192 74.6606 53.1255 75.5832 49.7759L82.8461 27.0407ZM85.5742 27.0407V54.9607H87.4205V43.4733H90.9117C95.3648 43.4733 97.4115 41.2791 97.4115 36.8526V33.8212C97.4115 29.7523 95.7259 27.0407 91.3927 27.0407H85.5742ZM87.4205 41.7978V28.7162H91.3927C94.5227 28.7162 95.5666 30.6694 95.5666 33.7007V36.9718C95.5666 40.3621 94.1616 41.7978 90.9117 41.7978H87.4205ZM111.616 48.7776L113.021 54.9607H114.867L108.607 27H105.919L99.7784 54.9607H101.464L102.869 48.7776H111.616ZM107.202 29.1144L111.335 47.1833H103.15L107.202 29.1144ZM130.114 28.7162V54.9607H132V27.0407H121.528L120.684 48.1802C120.604 50.9718 120.403 53.3245 117.234 53.3245V55H117.595C121.728 54.9202 122.37 51.9294 122.531 48.1395L123.252 28.7162H130.114Z" fill="black"/>
<path d="M221.132 25.9616C216.785 25.9616 215 28.9545 215 32.9317V47.0298C215 51.007 216.785 54 221.132 54C225.478 54 227.264 51.007 227.264 47.0298V43.8791H225.478V47.1475C225.478 50.1016 224.3 52.307 221.173 52.307C218.045 52.307 216.867 50.1016 216.867 47.1475V32.814C216.867 29.8598 218.045 27.6158 221.173 27.6158C224.3 27.6158 225.478 29.8598 225.478 32.814V35.2158H227.264V32.9317C227.264 28.9545 225.478 25.9616 221.132 25.9616ZM237.5 53.7632V27.8511H243.308V26.1982H229.824V27.8511H235.632V53.7632H237.5ZM246.071 26.1982V53.7632H247.937V42.4227H251.471C255.981 42.4227 258.051 40.2562 258.051 35.8858V32.8929C258.051 28.8755 256.346 26.1982 251.958 26.1982H246.071ZM247.937 40.7685V27.8511H251.958C255.127 27.8511 256.183 29.781 256.183 32.7739V36.0035C256.183 39.3509 254.762 40.7685 251.471 40.7685H247.937ZM260.732 47.0298C260.732 51.0471 262.64 54 266.946 54C271.334 54 273.241 51.0471 273.241 47.0298V32.9317C273.241 28.9143 271.334 25.9616 266.946 25.9616C262.64 25.9616 260.732 28.9143 260.732 32.9317V47.0298ZM262.6 32.814C262.6 29.821 263.819 27.6158 266.946 27.6158C270.114 27.6158 271.373 29.821 271.373 32.814V47.1475C271.373 50.1404 270.114 52.3456 266.946 52.3456C263.819 52.3456 262.6 50.1404 262.6 47.1475V32.814ZM285.711 21C285.629 22.5353 284.37 23.1651 282.867 23.1651C281.405 23.1651 280.146 22.5353 280.105 21H278.806C278.846 23.1264 280.552 24.3473 282.867 24.3473C285.222 24.3473 286.929 23.0862 286.969 21H285.711ZM287.294 29.3878V53.7632H289V26.1982H286.766L281.73 39.744L278.034 49.786V26.1982H276.327V53.7632H278.36L283.232 40.3351L287.294 29.3878Z" fill="black"/>
<path d="M3.58579 64.0319C1.14236 64.0319 0 65.0778 0 66.6617V72.0704C0 73.6543 1.14236 74.7002 3.58579 74.7002C6.05127 74.7002 7.19362 73.6543 7.19362 72.0704V70.7701H5.50323V72.13C5.50323 73.0717 4.93241 73.6394 3.63133 73.6394C2.35233 73.6394 1.75873 73.0717 1.75873 72.13V66.6016C1.75873 65.6604 2.35233 65.0927 3.63133 65.0927C4.93241 65.0927 5.50323 65.6604 5.50323 66.6016V67.6029H7.19362V66.6617C7.19362 65.0778 6.05127 64.0319 3.58579 64.0319ZM15.267 65.197V74.5955H17.0478V64.1366H9.55803V74.5955H11.3388V65.197H15.267ZM21.3994 68.7681V65.197H26.1951V64.1366H19.6178V74.5955H26.1951V73.5346H21.3994V69.8141H25.304V68.7681H21.3994ZM37.4421 76V73.5644H36.2321V64.1366H34.4286V73.5346H30.5005V64.1366H28.7424V74.5955H35.7069V76H37.4421ZM45.6528 66.2733V74.5955H47.2514V64.1366H45.2649L42.7069 69.0522L41.2912 71.9358V64.1366H39.7154V74.5955H41.5652L43.9176 69.7693L45.6528 66.2733ZM55.645 72.4886L56.2614 74.5955H58.0422L54.9824 64.1366H52.4023L49.3424 74.5955H50.9866L51.603 72.4886H55.645ZM53.5894 65.4514L55.3938 71.4878H51.8314L53.5894 65.4514ZM66.6408 65.197V74.5955H68.4222V64.1366H61.9141L61.4806 72.0555C61.4343 73.0567 61.1838 73.5494 59.699 73.5494V74.6104H59.9959C62.4393 74.5954 63.124 73.6543 63.2158 71.9954L63.581 65.197H66.6408ZM76.9981 66.2733V74.5955H78.5959V64.1366H76.6095L74.0522 69.0522L72.6364 71.9358V64.1366H71.0607V74.5955H72.9105L75.2622 69.7693L76.9981 66.2733ZM84.6372 64.0319C82.1939 64.0319 81.0749 65.048 81.0749 66.6464V67.3039H82.7198V66.6016C82.7198 65.6604 83.3133 65.0927 84.5923 65.0927C85.8934 65.0927 86.4643 65.6307 86.4643 66.7064V67.1847C86.4643 68.0961 85.6885 68.6191 84.5006 68.6191H83.6557V69.665H84.4095C85.7568 69.665 86.4643 70.2025 86.4643 71.2186V72.0406C86.4643 73.0861 85.8934 73.6394 84.5923 73.6394C83.3133 73.6394 82.7198 73.0717 82.7198 72.13V71.0543H81.0529V72.0704C81.0529 73.6543 82.1939 74.7002 84.6372 74.7002C87.1041 74.7002 88.2458 73.6543 88.2458 72.0704V71.2484C88.2458 70.2025 87.6287 69.3959 86.2814 69.0968C87.5831 68.7835 88.2458 68.0062 88.2458 66.9305V66.6617C88.2458 65.0778 87.1041 64.0319 84.6372 64.0319ZM96.6614 66.2733V74.5955H98.26V64.1366H96.2735L93.7155 69.0522L92.2999 71.9358V64.1366H90.7241V74.5955H92.5739L94.9262 69.7693L96.6614 66.2733ZM100.807 64.1366V74.5955H102.588V70.4716H104.164C106.698 70.4716 107.886 69.6049 107.886 67.9466V66.6915C107.886 65.1077 106.813 64.1366 104.301 64.1366H100.807ZM102.588 69.4256V65.197H104.301C105.603 65.197 106.128 65.6753 106.128 66.6319V68.021C106.128 69.0224 105.489 69.4256 104.164 69.4256H102.588ZM109.886 72.0704C109.886 73.6543 111.096 74.7002 113.539 74.7002C116.005 74.7002 117.216 73.6543 117.216 72.0704V66.6617C117.216 65.063 116.005 64.0319 113.539 64.0319C111.096 64.0319 109.886 65.063 109.886 66.6617V72.0704ZM111.644 66.6016C111.644 65.6604 112.261 65.0927 113.539 65.0927C114.841 65.0927 115.434 65.6604 115.434 66.6016V72.13C115.434 73.0861 114.841 73.6394 113.539 73.6394C112.261 73.6394 111.644 73.0861 111.644 72.13V66.6016ZM119.648 64.1366V74.5955H123.325C125.814 74.5955 126.978 73.7138 126.978 72.1449V71.2633C126.978 70.113 126.385 69.3064 124.832 69.0223C126.225 68.7383 126.705 68.0509 126.705 66.9453V66.4521C126.705 64.9134 125.722 64.1366 123.233 64.1366H119.648ZM121.43 68.5744V65.197H123.188C124.467 65.197 124.947 65.6455 124.947 66.5718V67.1847C124.947 68.2754 124.216 68.5744 122.8 68.5744H121.43ZM121.43 73.5346V69.6348H122.983C124.512 69.6348 125.221 70.0236 125.221 71.1888V72.1151C125.221 73.086 124.627 73.5346 123.325 73.5346H121.43ZM135.19 72.4886L135.806 74.5955H137.588L134.527 64.1366H131.946L128.887 74.5955H130.531L131.147 72.4886H135.19ZM133.135 65.4514L134.938 71.4878H131.376L133.135 65.4514ZM145.433 69.889V74.5955H147.214V64.1366H145.433V68.8431H141.504V64.1366H139.723V74.5955H141.504V69.889H145.433ZM155.493 69.889V74.5955H157.273V64.1366H155.493V68.8431H151.565V64.1366H149.784V74.5955H151.565V69.889H155.493ZM161.625 68.2605V64.1366H159.843V74.5955H163.338C165.826 74.5955 166.923 73.6244 166.923 72.0406V70.7855C166.923 69.1267 165.736 68.2605 163.2 68.2605H161.625ZM168.407 64.1366V74.5955H170.166V64.1366H168.407ZM161.625 73.5346V69.3064H163.2C164.525 69.3064 165.165 69.6949 165.165 70.7106V72.1002C165.165 73.0567 164.639 73.5346 163.338 73.5346H161.625ZM178.373 62C178.303 62.5826 177.755 62.7618 177.003 62.7618C176.249 62.7618 175.724 62.5826 175.656 62H174.537C174.582 62.9114 175.472 63.4642 177.003 63.4642C178.533 63.4642 179.469 62.9114 179.469 62H178.373ZM179.081 66.2733V74.5955H180.679V64.1366H178.693L176.204 68.9175L174.72 71.9358V64.1366H173.143V74.5955H174.993L177.483 69.5602L179.081 66.2733ZM191.928 64.0319C189.485 64.0319 188.366 65.048 188.366 66.6464V67.3039H190.01V66.6016C190.01 65.6604 190.604 65.0927 191.883 65.0927C193.183 65.0927 193.754 65.6307 193.754 66.7064V67.1847C193.754 68.0961 192.978 68.6191 191.791 68.6191H190.945V69.665H191.699C193.047 69.665 193.754 70.2025 193.754 71.2186V72.0406C193.754 73.0861 193.183 73.6394 191.883 73.6394C190.604 73.6394 190.01 73.0717 190.01 72.13V71.0543H188.343V72.0704C188.343 73.6543 189.485 74.7002 191.928 74.7002C194.394 74.7002 195.536 73.6543 195.536 72.0704V71.2484C195.536 70.2025 194.92 69.3959 193.571 69.0968C194.873 68.7835 195.536 68.0062 195.536 66.9305V66.6617C195.536 65.0778 194.394 64.0319 191.928 64.0319ZM203.861 72.4886L204.477 74.5955H206.258L203.198 64.1366H200.617L197.558 74.5955H199.202L199.818 72.4886H203.861ZM201.806 65.4514L203.609 71.4878H200.047L201.806 65.4514ZM211.843 64.0319C209.4 64.0319 208.258 65.0778 208.258 66.6617V72.0704C208.258 73.6543 209.4 74.7002 211.843 74.7002C214.309 74.7002 215.451 73.6543 215.451 72.0704V70.7701H213.761V72.13C213.761 73.0717 213.19 73.6394 211.888 73.6394C210.609 73.6394 210.016 73.0717 210.016 72.13V66.6016C210.016 65.6604 210.609 65.0927 211.888 65.0927C213.19 65.0927 213.761 65.6604 213.761 66.6016V67.6029H215.451V66.6617C215.451 65.0778 214.309 64.0319 211.843 64.0319ZM222.039 74.5955V65.197H224.985V64.1366H217.312V65.197H220.259V74.5955H222.039ZM227.054 64.1366V74.5955H228.834V70.4716H230.409C232.945 70.4716 234.132 69.6049 234.132 67.9466V66.6915C234.132 65.1077 233.059 64.1366 230.547 64.1366H227.054ZM228.834 69.4256V65.197H230.547C231.848 65.197 232.374 65.6753 232.374 66.6319V68.021C232.374 69.0224 231.735 69.4256 230.409 69.4256H228.834ZM236.132 72.0704C236.132 73.6543 237.342 74.7002 239.785 74.7002C242.251 74.7002 243.461 73.6543 243.461 72.0704V66.6617C243.461 65.063 242.251 64.0319 239.785 64.0319C237.342 64.0319 236.132 65.063 236.132 66.6617V72.0704ZM237.89 66.6016C237.89 65.6604 238.506 65.0927 239.785 65.0927C241.087 65.0927 241.68 65.6604 241.68 66.6016V72.13C241.68 73.0861 241.087 73.6394 239.785 73.6394C238.506 73.6394 237.89 73.0861 237.89 72.13V66.6016ZM251.124 62C251.055 62.5826 250.507 62.7618 249.753 62.7618C249 62.7618 248.474 62.5826 248.406 62H247.287C247.333 62.9114 248.224 63.4642 249.753 63.4642C251.283 63.4642 252.219 62.9114 252.219 62H251.124ZM251.831 66.2733V74.5955H253.43V64.1366H251.443L248.954 68.9175L247.47 71.9358V64.1366H245.895V74.5955H247.745L250.233 69.5602L251.831 66.2733ZM268.674 76V73.5644H267.441V64.1366H265.683V73.5346H262.599V64.1366H260.842V73.5346H257.782V64.1366H256V74.5955H266.962V76H268.674ZM276.883 66.2733V74.5955H278.483V64.1366H276.497L273.939 69.0522L272.523 71.9358V64.1366H270.947V74.5955H272.797L275.148 69.7693L276.883 66.2733ZM287.173 74.5955H289L284.82 68.9027L288.863 64.1366H287.059L282.812 69.1868V64.1366H281.03V74.5955H282.812V71.084L283.748 70.0529L287.173 74.5955Z" fill="#4B4B4B"/>
<path fill-rule="evenodd" clip-rule="evenodd" d="M0.00105145 54.9979L0 24.5107L11.9412 17L12 55L0.00105145 54.9979Z" fill="#FED325"/>
<path fill-rule="evenodd" clip-rule="evenodd" d="M25.0847 24.429L12.0012 17.1906L12 13.1779L34.9965 0L35 54.9989L25.1483 55L25.0847 24.429Z" fill="#FED325"/>
<path fill-rule="evenodd" clip-rule="evenodd" d="M44 55L44.1073 17L55 24.3587V54.9892L44 55Z" fill="#FED325"/>
</svg>
