<svg width="31" height="21" viewBox="0 0 31 21" fill="none" xmlns="http://www.w3.org/2000/svg">
<path fill-rule="evenodd" clip-rule="evenodd" d="M10.9363 11.7727C11.3475 12.0114 12.0875 12.9659 12.6631 13.3636C14.061 14.3977 16.1989 14.6364 17.679 13.7614C17.9257 13.6023 18.008 13.5227 18.2546 13.3636C18.8302 12.9659 19.4058 12.1705 19.9814 11.7727L27.7931 19.25H3.12467L9.9496 12.7273C10.1963 12.4886 10.6897 11.9318 10.9363 11.7727ZM21.3793 10.5C21.5438 10.2614 22.0371 9.78409 22.2838 9.54545L23.0239 8.82955C23.1061 8.75 23.1883 8.75 23.2706 8.59091C24.0106 8.03409 26.313 5.72727 27.1353 4.85227C27.5464 4.53409 27.7931 4.29545 28.122 3.97727C28.3687 3.65909 28.8621 3.18182 29.191 3.02273V17.9773C28.8621 17.8182 25.5729 14.5568 25.244 14.2386C25.0796 14.0795 24.9151 13.9205 24.7507 13.7614C24.0928 13.2045 21.626 10.9773 21.3793 10.5ZM1.80902 17.9773V3.02273L3.70027 4.85227C4.85146 5.88636 6.57825 7.63636 7.64722 8.59091C8.14058 9.06818 9.20955 10.0227 9.62069 10.5C9.37401 10.7386 8.88064 11.2159 8.63395 11.4545C7.81167 12.25 7.07162 12.9659 6.16711 13.7614L3.78249 16.0682C3.45358 16.3864 3.12467 16.7045 2.79576 17.0227C2.54907 17.2614 2.0557 17.8182 1.80902 17.9773ZM3.12467 1.75H27.7931C27.5464 2.14773 24.0928 5.32955 23.435 5.96591L17.5146 11.6136C17.2679 11.8523 17.0212 12.0909 16.6923 12.25C14.5544 13.2841 13.2387 11.5341 12.0053 10.2614L6.49602 5.01136C5.92042 4.45455 3.28912 1.98864 3.12467 1.75ZM0 2.38636V18.5341C0 19.8068 1.23342 21 2.46684 21H28.4509C29.6844 21 31 19.8068 31 18.5341V2.38636C31 1.19318 29.6844 0 28.4509 0H2.46684C1.23342 0 0 1.19318 0 2.38636Z" fill="black"/>
</svg>
