<svg width="34" height="31" viewBox="0 0 34 31" fill="none" xmlns="http://www.w3.org/2000/svg">
<path fill-rule="evenodd" clip-rule="evenodd" d="M0 7.1053C0 10.4329 0.586207 12.1691 2.49138 15.0626C3.66379 17.0882 5.42241 19.2583 7.03448 20.9945C7.18103 21.2838 7.47414 21.5732 7.76724 21.8626C8.35345 22.2966 8.7931 22.8753 9.37931 23.3094C10.8448 24.7561 12.6034 26.2029 14.3621 27.2157C15.0948 27.6497 15.8276 27.9391 16.4138 28.2284C17.7328 28.9518 19.3448 29.3859 20.8103 29.9646C24.7672 31.2667 28.1379 31.7007 31.6552 29.0965C32.2414 28.5178 32.9741 27.7944 33.2672 26.9263C33.7069 25.9136 34 24.9008 34 23.5987C34 22.586 32.3879 22.1519 30.7759 21.2838C24.0345 18.1009 25.9397 18.5349 22.7155 22.1519C21.3966 23.5987 21.3966 24.3221 17 21.5732C15.3879 20.7051 14.9483 20.2711 13.4828 19.2583C12.3103 18.2456 8.5 13.7605 8.5 12.7478C8.5 11.8797 11.431 10.1436 11.431 8.40741C11.431 7.97337 9.23276 2.47556 8.64655 1.60749C7.76724 -0.273338 7.47414 0.0160198 4.68966 0.0160198C3.51724 0.0160198 2.05172 1.89685 1.46552 2.62024C0.732759 3.77768 0 5.36915 0 7.1053Z" fill="black"/>
</svg>
