<svg width="31" height="31" viewBox="0 0 31 31" fill="none" xmlns="http://www.w3.org/2000/svg">
<circle cx="15.5" cy="15.5" r="14.5" stroke="black" stroke-width="2"/>
<path fill-rule="evenodd" clip-rule="evenodd" d="M7 11.438C7 13.0482 7.2931 13.8883 8.24569 15.2884C8.8319 16.2685 9.71121 17.3186 10.5172 18.1586C10.5905 18.2986 10.7371 18.4386 10.8836 18.5787C11.1767 18.7887 11.3966 19.0687 11.6897 19.2787C12.4224 19.9788 13.3017 20.6788 14.181 21.1689C14.5474 21.3789 14.9138 21.5189 15.2069 21.6589C15.8664 22.009 16.6724 22.219 17.4052 22.499C19.3836 23.1291 21.069 23.3391 22.8276 22.079C23.1207 21.7989 23.4871 21.4489 23.6336 21.0289C23.8534 20.5388 24 20.0488 24 19.4187C24 18.9287 23.194 18.7187 22.3879 18.2986C19.0172 16.7585 19.9698 16.9685 18.3578 18.7187C17.6983 19.4187 17.6983 19.7688 15.5 18.4386C14.694 18.0186 14.4741 17.8086 13.7414 17.3186C13.1552 16.8285 11.25 14.6583 11.25 14.1683C11.25 13.7482 12.7155 12.9082 12.7155 12.0681C12.7155 11.8581 11.6164 9.19785 11.3233 8.77782C10.8836 7.86774 10.7371 8.00775 9.34483 8.00775C8.75862 8.00775 8.02586 8.91783 7.73276 9.26786C7.36638 9.82791 7 10.598 7 11.438Z" fill="black"/>
</svg>
