<svg width="41" height="41" viewBox="0 0 41 41" fill="none" xmlns="http://www.w3.org/2000/svg">
<path fill-rule="evenodd" clip-rule="evenodd" d="M8.25489 2.97101C5.11975 2.97101 2.74459 5.51253 2.74459 8.43311V32.5669C2.74459 35.4875 5.11975 38.029 8.25489 38.029H32.7451C35.8802 38.029 38.2554 35.4875 38.2554 32.5669V8.43311C38.2554 5.51253 35.8802 2.97101 32.7451 2.97101H8.25489ZM0 8.43311C0 3.67958 3.78772 0 8.25489 0H32.7451C37.2123 0 41 3.67958 41 8.43311V32.5669C41 37.3204 37.2123 41 32.7451 41H8.25489C3.78772 41 0 37.3204 0 32.5669V8.43311Z" fill="black"/>
<path fill-rule="evenodd" clip-rule="evenodd" d="M7.04368 11.0125C6.87325 11.0125 6.70282 11.0626 6.575 11.1127C6.10632 11.263 5.9359 11.764 6.02111 12.4153C6.23414 13.7179 7.51235 16.6737 8.10885 17.9262C8.96098 19.7798 9.64269 21.2327 10.7505 22.886L11.5174 23.9881C11.6026 24.0883 11.6878 24.1885 11.773 24.3388L11.9435 24.5893C11.9861 24.5893 11.9861 24.6394 12.0287 24.6895L13.0086 25.8418C13.1791 26.0422 13.3921 26.2927 13.6051 26.4931C14.159 27.0442 14.7555 27.6454 15.352 28.0461C15.9059 28.4469 16.2468 28.6974 16.8433 28.998C17.951 29.5491 19.2292 29.8998 20.5501 29.9499C21.2318 30 21.9987 29.9499 22.5952 29.7495C22.936 29.5992 23.1065 29.499 23.2343 29.0982C23.4473 28.2465 23.1917 26.3929 23.2769 25.3408C23.2769 25.1404 23.3195 24.94 23.3621 24.7897C23.5751 24.2386 24.2569 24.439 24.5977 24.6394C25.1942 24.8899 25.7055 25.3909 26.1316 25.7917C26.302 25.9921 26.4724 26.1424 26.6002 26.2927C26.6854 26.3929 26.8133 26.4931 26.8985 26.5933L27.1967 26.944C27.2819 27.0442 27.3672 27.1444 27.495 27.2446C27.5802 27.3448 27.708 27.445 27.7932 27.5953C27.8784 27.6955 27.9637 27.7957 28.0489 27.8958C28.3471 28.2465 28.6028 28.5972 28.8584 28.9479C29.4975 29.9499 30.307 30 31.3722 30C32.1391 30 32.9061 30 33.673 30C34.2695 30 35.079 29.8998 34.9938 28.8978C34.9086 28.1964 34.2695 27.3448 33.9286 26.8438L33.5452 26.2927C33.5025 26.1925 33.4599 26.1925 33.4173 26.0923L32.9061 25.3909C32.7356 25.1905 32.48 24.8899 32.3522 24.6895L32.0539 24.3388C31.9687 24.2386 31.8835 24.1384 31.7557 24.0382C31.6705 23.938 31.5852 23.7877 31.5 23.6875L30.6479 22.6856C30.6053 22.6355 30.5627 22.5854 30.5201 22.5353C30.307 22.2848 29.9662 21.884 29.8384 21.5834C29.7105 21.1826 29.7531 20.9321 29.9236 20.5814C30.0514 20.381 30.2644 20.0303 30.3922 19.8299L32.2243 16.6236C32.3522 16.3731 32.48 16.0725 32.6504 15.822C32.9487 15.2709 33.2043 14.7198 33.4599 14.1187C33.5878 13.8181 33.7156 13.5175 33.8434 13.2169C34.1417 12.6157 34.4399 11.8141 34.0138 11.263C33.8434 11.0125 33.4599 11.0125 33.1191 11.0125H30.8183C30.5627 11.0125 29.9662 10.9624 29.7105 11.0626C29.2419 11.2129 28.901 12.0145 28.688 12.4654C28.3897 13.0165 28.0915 13.5676 27.8358 14.1688C27.708 14.4192 27.5376 14.6697 27.4098 14.9703C27.2393 15.2208 27.1115 15.5214 26.9837 15.822C26.515 16.5234 25.7481 17.7258 25.2368 18.4272C25.109 18.6276 25.0238 18.828 24.8534 18.9782L24.7255 19.1786C24.6403 19.2788 24.5551 19.379 24.4699 19.4792C24.2995 19.7297 24.0438 20.0303 23.8308 20.0804C23.3621 20.2307 23.3195 19.9301 23.2769 19.4792C23.2343 19.0283 23.2769 18.5775 23.2769 18.1266V12.1648C23.2769 11.8141 23.3621 11.263 23.0639 11.0626C22.8934 10.9624 22.6804 11.0125 22.51 11.0125H16.8859C15.9059 11.0125 15.9911 11.8141 16.4172 12.4153C16.5876 12.7159 16.758 12.9163 16.9285 13.1668C17.3971 13.768 17.4398 14.2189 17.4398 15.2208V20.5313C17.4398 20.7818 17.4398 20.9321 17.3971 21.1826C17.3545 21.3329 17.2693 21.4832 17.1841 21.5834C16.8433 21.8339 16.3746 21.383 16.1615 21.1325L15.5651 20.3309C15.5224 20.2808 15.4798 20.2307 15.4372 20.1305C15.3946 20.0804 15.352 20.0303 15.3094 19.9802C14.3295 18.6276 13.3921 16.6236 12.7956 14.9202L11.8156 12.0646C11.6878 11.7139 11.56 11.4634 11.3896 11.263C11.1339 11.0125 10.8783 11.0125 10.4522 11.0125H8.19406C7.8106 11.0125 7.42714 11.0125 7.04368 11.0125Z" fill="black"/>
</svg>
