<svg width="41" height="41" viewBox="0 0 41 41" fill="none" xmlns="http://www.w3.org/2000/svg">
<path fill-rule="evenodd" clip-rule="evenodd" d="M3.18475 20.4263C3.18475 17.824 3.8707 15.1234 4.70363 13.3557C5.38958 11.9808 6.17352 10.606 7.25143 9.37844C9.26027 7.11976 11.2201 5.5976 14.1109 4.41916C19.5005 2.30778 25.38 3.04431 30.1816 6.18683C34.4443 9.03473 37.727 14.4359 37.727 19.8862C37.727 22.8323 37.2861 25.2383 36.1102 27.5952C35.0812 29.6084 34.1503 30.9341 32.6314 32.4563C29.6427 35.4515 25.184 37.4156 20.9214 37.4156C18.0796 37.4156 14.9928 36.8754 12.592 35.5497C11.3671 34.8623 11.9061 35.0587 9.84823 35.5006C9.21128 35.5988 8.67232 35.7461 8.03537 35.8934C7.39842 35.9916 6.81047 36.188 6.17352 36.2862C5.73255 36.3844 4.85062 36.679 4.31166 36.679C4.36066 36.3353 4.50765 35.8934 4.55664 35.6479L5.68355 30.394C6.07552 28.7246 5.63456 29.2647 4.99761 27.6934C4.16467 25.6311 3.8707 25.3856 3.42973 22.8323C3.33174 22.194 3.18475 21.1629 3.18475 20.4263ZM0 19.6407C0 22.194 0.0979923 23.8635 0.930927 26.2204C1.42089 27.6934 1.61687 28.2335 2.25382 29.5102C2.5478 30.0503 2.44981 30.0503 2.30282 30.7377C1.91085 32.4563 1.56788 34.1257 1.17591 35.8443C1.02892 36.4335 0.0979923 40.509 0.0979923 41C0.979923 40.9509 10.6812 38.5449 11.2201 38.5449C11.4651 38.5449 11.9551 38.8395 12.2 38.9377C12.543 39.085 12.837 39.1832 13.229 39.3305C13.9149 39.576 14.6498 39.8216 15.3848 40.018C18.5205 40.9018 21.8523 40.8527 25.037 40.1653C27.5848 39.576 30.0346 38.4958 32.1415 37.0228C35.4242 34.7641 38.07 31.5234 39.5399 27.8407C42.5777 20.2299 40.7648 11.7844 35.1302 6.18683C34.1993 5.25389 34.2483 5.25389 33.2194 4.41916C32.0435 3.43713 30.7696 2.7006 29.3487 1.96407C27.4378 0.982036 24.0571 0 21.2153 0H19.6965C16.2177 0 11.5631 1.57126 8.72132 3.68263C7.6924 4.41916 6.90846 5.05749 6.02653 5.94132C4.06668 7.90539 3.13575 9.28024 1.91085 11.6862C0.979923 13.5521 0 16.7928 0 19.6407Z" fill="black"/>
<path fill-rule="evenodd" clip-rule="evenodd" d="M11 16.0805C11 18.0885 11.3599 19.0422 12.4396 20.749C13.2108 21.9036 14.1877 23.2088 15.1131 24.2128C15.2674 24.3634 15.4216 24.514 15.5758 24.6646C15.8843 24.9658 16.1414 25.267 16.5013 25.5682C17.3753 26.4216 18.455 27.1746 19.4833 27.8272C19.8432 28.028 20.3059 28.2288 20.7172 28.4296C21.437 28.781 22.4139 29.1324 23.2365 29.3834C25.5501 30.1364 27.5553 30.4376 29.6118 28.8814C29.9717 28.5802 30.4344 28.1786 30.6401 27.6766C30.8458 27.0742 31 26.4718 31 25.6686C31 25.1164 30.0746 24.8152 29.1491 24.4136C25.1902 22.4558 26.2699 22.757 24.3676 24.8152C23.5964 25.6686 23.6478 26.0702 20.9743 24.5642C20.0488 24.012 19.7918 23.8112 18.9692 23.1586C18.2494 22.5562 16.0386 19.996 16.0386 19.3434C16.0386 18.8916 17.7352 17.8375 17.7352 16.8335C17.7352 16.5825 16.3985 13.4199 16.1414 12.9179C15.5758 11.8135 15.4216 12.0143 13.7763 12.0143C13.0566 12.0143 12.2339 13.0685 11.9255 13.5203C11.4627 14.1729 11 15.0765 11 16.0805Z" fill="black"/>
</svg>
